<svg version="1.1" id="Capa_1" xmlns="http://www.w3.org/2000/svg" xmlns:xlink="http://www.w3.org/1999/xlink" x="0px" y="0px" viewBox="0 0 512 512" style="enable-background:new 0 0 512 512;" xml:space="preserve"><g><g><path d="M443.548,186.991c-0.273,0-0.551,0.011-0.829,0.022l-269.852,13.412l-27.704-46.959 c-3.795-6.433-11.403-9.555-18.605-7.669l-36.174,9.461c-4.569,1.197-8.42,4.274-10.596,8.47 c-2.176,4.202-2.471,9.121-0.813,13.546L108.5,256L78.97,334.726c-1.658,4.43-1.364,9.35,0.813,13.546 c2.17,4.196,6.022,7.274,10.596,8.47l36.174,9.461c1.408,0.373,2.827,0.545,4.23,0.545c5.855,0,11.414-3.083,14.453-8.337 l27.732-47.944l269.752,13.407c0.273,0.017,0.551,0.022,0.829,0.022c37.743,0,68.452-30.709,68.452-68.452 S481.291,186.991,443.548,186.991z M443.926,290.504l-279.48-13.891c-6.25-0.384-12.149,2.894-15.282,8.314l-26.463,45.757 l-5.96-1.558l25.222-67.267c1.414-3.784,1.414-7.947,0-11.726l-25.222-67.261l6.066-1.586l26.429,44.794 c3.155,5.348,9.066,8.559,15.21,8.192l279.48-13.891c18.833,0.206,34.682,16.178,34.682,35.061S462.759,290.293,443.926,290.504z" fill="#000000" style="fill: #8ea19f;"></path></g></g><g><g><path d="M366.659,216.309l29.117-16.34L313.967,54.161c-2.955-5.265-8.52-8.526-14.559-8.526H228.73 c-5.287,0-10.257,2.504-13.407,6.745c-3.15,4.246-4.102,9.728-2.571,14.787l45.635,150.817l31.955-9.672L251.225,79.026h38.406 L366.659,216.309z" fill="#000000" style="fill: #8ea19f;"></path></g></g><g><g><path d="M367.221,295.118l-77.574,137.856h-38.422l39.118-129.286l-31.956-9.672l-45.635,150.817 c-1.53,5.059-0.579,10.541,2.571,14.787c3.15,4.246,8.12,6.745,13.407,6.745h70.678c6.033,0,11.592-3.25,14.548-8.504 l82.365-146.365L367.221,295.118z" fill="#000000" style="fill: #8ea19f;"></path></g></g><g><g><path d="M144.139,77.913H43.965c-9.222,0-16.696,7.474-16.696,16.696s7.474,16.696,16.696,16.696h100.174 c9.222,0,16.696-7.474,16.696-16.696S153.361,77.913,144.139,77.913z" fill="#000000" style="fill: #8ea19f;"></path></g></g><g><g><path d="M144.139,400.696H43.965c-9.222,0-16.696,7.474-16.696,16.696s7.474,16.696,16.696,16.696h100.174 c9.222,0,16.696-7.474,16.696-16.696S153.361,400.696,144.139,400.696z" fill="#000000" style="fill: #8ea19f;"></path></g></g><g><g><path d="M61.217,239.304H16.696C7.474,239.304,0,246.778,0,256s7.474,16.696,16.696,16.696h44.522 c9.222,0,16.696-7.474,16.696-16.696S70.439,239.304,61.217,239.304z" fill="#000000" style="fill: #8ea19f;"></path></g></g></svg>